<mxfile host="app.diagrams.net" agent="Mozilla/5.0 (X11; Ubuntu; Linux x86_64; rv:132.0) Gecko/20100101 Firefox/132.0" version="26.0.9">
  <diagram name="Page-1" id="M9KaH4QeYcp_xekrCkaK">
    <mxGraphModel dx="1605" dy="2035" grid="1" gridSize="10" guides="1" tooltips="1" connect="1" arrows="1" fold="1" page="1" pageScale="1" pageWidth="850" pageHeight="1100" math="0" shadow="0">
      <root>
        <mxCell id="0" />
        <mxCell id="1" parent="0" />
        <mxCell id="AYmwYRvrTs93Y5b12vgi-13" value="" style="edgeStyle=orthogonalEdgeStyle;rounded=0;orthogonalLoop=1;jettySize=auto;html=1;" edge="1" parent="1" source="AYmwYRvrTs93Y5b12vgi-1" target="AYmwYRvrTs93Y5b12vgi-9">
          <mxGeometry relative="1" as="geometry" />
        </mxCell>
        <mxCell id="AYmwYRvrTs93Y5b12vgi-1" value="start" style="ellipse;whiteSpace=wrap;html=1;" vertex="1" parent="1">
          <mxGeometry x="160" y="-70" width="120" height="80" as="geometry" />
        </mxCell>
        <mxCell id="AYmwYRvrTs93Y5b12vgi-14" value="" style="edgeStyle=orthogonalEdgeStyle;rounded=0;orthogonalLoop=1;jettySize=auto;html=1;" edge="1" parent="1" source="AYmwYRvrTs93Y5b12vgi-9" target="AYmwYRvrTs93Y5b12vgi-10">
          <mxGeometry relative="1" as="geometry" />
        </mxCell>
        <mxCell id="AYmwYRvrTs93Y5b12vgi-9" value="&lt;div&gt;voto = 0&lt;/div&gt;&lt;div&gt;media = 0&lt;/div&gt;&lt;div&gt;somma = 0&lt;/div&gt;&lt;div&gt;cont = 0&lt;br&gt;&lt;/div&gt;" style="rounded=0;whiteSpace=wrap;html=1;" vertex="1" parent="1">
          <mxGeometry x="160" y="40" width="120" height="60" as="geometry" />
        </mxCell>
        <mxCell id="AYmwYRvrTs93Y5b12vgi-28" value="" style="edgeStyle=orthogonalEdgeStyle;rounded=0;orthogonalLoop=1;jettySize=auto;html=1;" edge="1" parent="1" source="AYmwYRvrTs93Y5b12vgi-10" target="AYmwYRvrTs93Y5b12vgi-15">
          <mxGeometry relative="1" as="geometry" />
        </mxCell>
        <mxCell id="AYmwYRvrTs93Y5b12vgi-10" value="read comando" style="shape=parallelogram;perimeter=parallelogramPerimeter;whiteSpace=wrap;html=1;fixedSize=1;" vertex="1" parent="1">
          <mxGeometry x="160" y="130" width="120" height="60" as="geometry" />
        </mxCell>
        <mxCell id="AYmwYRvrTs93Y5b12vgi-29" value="" style="edgeStyle=orthogonalEdgeStyle;rounded=0;orthogonalLoop=1;jettySize=auto;html=1;" edge="1" parent="1" source="AYmwYRvrTs93Y5b12vgi-15" target="AYmwYRvrTs93Y5b12vgi-16">
          <mxGeometry relative="1" as="geometry" />
        </mxCell>
        <mxCell id="AYmwYRvrTs93Y5b12vgi-41" value="false" style="edgeLabel;html=1;align=center;verticalAlign=middle;resizable=0;points=[];" vertex="1" connectable="0" parent="AYmwYRvrTs93Y5b12vgi-29">
          <mxGeometry x="-0.0866" y="1" relative="1" as="geometry">
            <mxPoint as="offset" />
          </mxGeometry>
        </mxCell>
        <mxCell id="AYmwYRvrTs93Y5b12vgi-31" value="" style="edgeStyle=orthogonalEdgeStyle;rounded=0;orthogonalLoop=1;jettySize=auto;html=1;" edge="1" parent="1" source="AYmwYRvrTs93Y5b12vgi-15" target="AYmwYRvrTs93Y5b12vgi-30">
          <mxGeometry relative="1" as="geometry" />
        </mxCell>
        <mxCell id="AYmwYRvrTs93Y5b12vgi-40" value="true" style="edgeLabel;html=1;align=center;verticalAlign=middle;resizable=0;points=[];" vertex="1" connectable="0" parent="AYmwYRvrTs93Y5b12vgi-31">
          <mxGeometry x="0.4608" y="-2" relative="1" as="geometry">
            <mxPoint as="offset" />
          </mxGeometry>
        </mxCell>
        <mxCell id="AYmwYRvrTs93Y5b12vgi-15" value="comando == no" style="rhombus;whiteSpace=wrap;html=1;" vertex="1" parent="1">
          <mxGeometry x="170" y="220" width="100" height="90" as="geometry" />
        </mxCell>
        <mxCell id="AYmwYRvrTs93Y5b12vgi-19" value="" style="edgeStyle=orthogonalEdgeStyle;rounded=0;orthogonalLoop=1;jettySize=auto;html=1;" edge="1" parent="1" source="AYmwYRvrTs93Y5b12vgi-16" target="AYmwYRvrTs93Y5b12vgi-18">
          <mxGeometry relative="1" as="geometry" />
        </mxCell>
        <mxCell id="AYmwYRvrTs93Y5b12vgi-16" value="&lt;div&gt;comando == si&lt;/div&gt;" style="rhombus;whiteSpace=wrap;html=1;" vertex="1" parent="1">
          <mxGeometry x="156" y="360" width="130" height="100" as="geometry" />
        </mxCell>
        <mxCell id="AYmwYRvrTs93Y5b12vgi-32" value="" style="edgeStyle=orthogonalEdgeStyle;rounded=0;orthogonalLoop=1;jettySize=auto;html=1;" edge="1" parent="1" source="AYmwYRvrTs93Y5b12vgi-18" target="AYmwYRvrTs93Y5b12vgi-20">
          <mxGeometry relative="1" as="geometry" />
        </mxCell>
        <mxCell id="AYmwYRvrTs93Y5b12vgi-18" value="read voto" style="shape=parallelogram;perimeter=parallelogramPerimeter;whiteSpace=wrap;html=1;fixedSize=1;" vertex="1" parent="1">
          <mxGeometry x="336" y="380" width="120" height="60" as="geometry" />
        </mxCell>
        <mxCell id="AYmwYRvrTs93Y5b12vgi-33" value="" style="edgeStyle=orthogonalEdgeStyle;rounded=0;orthogonalLoop=1;jettySize=auto;html=1;" edge="1" parent="1" source="AYmwYRvrTs93Y5b12vgi-20" target="AYmwYRvrTs93Y5b12vgi-24">
          <mxGeometry relative="1" as="geometry" />
        </mxCell>
        <mxCell id="AYmwYRvrTs93Y5b12vgi-42" style="edgeStyle=orthogonalEdgeStyle;rounded=0;orthogonalLoop=1;jettySize=auto;html=1;" edge="1" parent="1" source="AYmwYRvrTs93Y5b12vgi-20">
          <mxGeometry relative="1" as="geometry">
            <mxPoint x="500" y="410" as="targetPoint" />
          </mxGeometry>
        </mxCell>
        <mxCell id="AYmwYRvrTs93Y5b12vgi-20" value="voto &amp;gt; 0" style="rhombus;whiteSpace=wrap;html=1;" vertex="1" parent="1">
          <mxGeometry x="356" y="480" width="80" height="80" as="geometry" />
        </mxCell>
        <mxCell id="AYmwYRvrTs93Y5b12vgi-37" value="" style="edgeStyle=orthogonalEdgeStyle;rounded=0;orthogonalLoop=1;jettySize=auto;html=1;" edge="1" parent="1" source="AYmwYRvrTs93Y5b12vgi-22" target="AYmwYRvrTs93Y5b12vgi-26">
          <mxGeometry relative="1" as="geometry" />
        </mxCell>
        <mxCell id="AYmwYRvrTs93Y5b12vgi-22" value="somma = somma + voto" style="whiteSpace=wrap;html=1;" vertex="1" parent="1">
          <mxGeometry x="336" y="690" width="120" height="60" as="geometry" />
        </mxCell>
        <mxCell id="AYmwYRvrTs93Y5b12vgi-36" value="" style="edgeStyle=orthogonalEdgeStyle;rounded=0;orthogonalLoop=1;jettySize=auto;html=1;" edge="1" parent="1" source="AYmwYRvrTs93Y5b12vgi-24" target="AYmwYRvrTs93Y5b12vgi-22">
          <mxGeometry relative="1" as="geometry" />
        </mxCell>
        <mxCell id="AYmwYRvrTs93Y5b12vgi-24" value="&lt;div&gt;&amp;nbsp;&lt;br&gt;&lt;/div&gt;&lt;div&gt;cont +1&lt;br&gt;&lt;/div&gt;" style="whiteSpace=wrap;html=1;" vertex="1" parent="1">
          <mxGeometry x="336" y="590" width="120" height="60" as="geometry" />
        </mxCell>
        <mxCell id="AYmwYRvrTs93Y5b12vgi-38" style="edgeStyle=orthogonalEdgeStyle;rounded=0;orthogonalLoop=1;jettySize=auto;html=1;" edge="1" parent="1" source="AYmwYRvrTs93Y5b12vgi-26">
          <mxGeometry relative="1" as="geometry">
            <mxPoint x="90" y="270" as="targetPoint" />
          </mxGeometry>
        </mxCell>
        <mxCell id="AYmwYRvrTs93Y5b12vgi-26" value="media = somma / cont" style="whiteSpace=wrap;html=1;" vertex="1" parent="1">
          <mxGeometry x="336" y="790" width="120" height="60" as="geometry" />
        </mxCell>
        <mxCell id="AYmwYRvrTs93Y5b12vgi-30" value="end" style="ellipse;whiteSpace=wrap;html=1;" vertex="1" parent="1">
          <mxGeometry x="330" y="225" width="120" height="80" as="geometry" />
        </mxCell>
        <mxCell id="AYmwYRvrTs93Y5b12vgi-39" value="" style="endArrow=classic;html=1;rounded=0;entryX=0;entryY=0.5;entryDx=0;entryDy=0;" edge="1" parent="1" target="AYmwYRvrTs93Y5b12vgi-15">
          <mxGeometry width="50" height="50" relative="1" as="geometry">
            <mxPoint x="90" y="270" as="sourcePoint" />
            <mxPoint x="140" y="220" as="targetPoint" />
          </mxGeometry>
        </mxCell>
        <mxCell id="AYmwYRvrTs93Y5b12vgi-43" value="" style="endArrow=classic;html=1;rounded=0;entryX=1;entryY=0.5;entryDx=0;entryDy=0;" edge="1" parent="1" target="AYmwYRvrTs93Y5b12vgi-18">
          <mxGeometry width="50" height="50" relative="1" as="geometry">
            <mxPoint x="500" y="410" as="sourcePoint" />
            <mxPoint x="550" y="360" as="targetPoint" />
          </mxGeometry>
        </mxCell>
      </root>
    </mxGraphModel>
  </diagram>
</mxfile>
